<?xml version="1.0" encoding="UTF-8" standalone="no"?>
<!-- https://www.iconfinder.com/icons/6914517/china_chinese_chopsticks_food_icon -->

<svg
   viewBox="0 0 64 63.999998"
   version="1.1"
   id="svg10"
   sodipodi:docname="kuaizi-ime.logo (copy 1).svg"
   width="64"
   height="64"
   inkscape:version="1.2.2 (b0a8486541, 2022-12-01)"
   xmlns:inkscape="http://www.inkscape.org/namespaces/inkscape"
   xmlns:sodipodi="http://sodipodi.sourceforge.net/DTD/sodipodi-0.dtd"
   xmlns="http://www.w3.org/2000/svg"
   xmlns:svg="http://www.w3.org/2000/svg">
  <sodipodi:namedview
     id="namedview12"
     pagecolor="#ffffff"
     bordercolor="#111111"
     borderopacity="1"
     inkscape:showpageshadow="0"
     inkscape:pageopacity="0"
     inkscape:pagecheckerboard="1"
     inkscape:deskcolor="#d1d1d1"
     showgrid="false"
     inkscape:zoom="8.2128559"
     inkscape:cx="14.063317"
     inkscape:cy="25.265267"
     inkscape:window-width="1920"
     inkscape:window-height="1052"
     inkscape:window-x="0"
     inkscape:window-y="28"
     inkscape:window-maximized="1"
     inkscape:current-layer="svg10" />
  <defs
     id="defs4">
    <style
       id="style2">.cls-1{fill:#231f20;}</style>
  </defs>
  <g
     id="g5604">
    <g
       aria-label="字"
       id="text349"
       style="font-weight:bold;font-size:46.8114px;line-height:1.25;-inkscape-font-specification:'sans-serif Bold';fill-opacity:1;stroke-width:0.365714;fill:#eb3c70">
      <path
         d="m 28.933857,32.866011 v 2.481004 H 11.520014 v 5.3365 h 17.413843 v 6.974899 c 0,0.655359 -0.28087,0.842605 -1.2171,0.842605 -0.93623,0 -4.49389,0 -7.34939,-0.09362 0.93623,1.497965 2.0597,4.02578 2.43419,5.710991 3.88535,0 6.88128,-0.09362 9.08142,-0.936228 2.34057,-0.842606 3.04274,-2.387382 3.04274,-5.383311 v -7.115333 h 17.554269 v -5.3365 h -17.55427 v -0.748982 c 3.97897,-2.293759 7.67707,-5.3365 10.43894,-8.191995 l -3.74491,-2.902307 -1.31072,0.280869 h -20.78426 v 5.196065 h 15.12008 c -1.77883,1.451153 -3.79172,2.902307 -5.71099,3.885346 z m -1.45116,-21.299187 c 0.65536,0.889416 1.26391,2.01289 1.77884,3.089552 H 11.707259 v 10.766623 h 5.523748 v -5.476934 h 29.11669 v 5.476934 h 5.80461 V 14.656376 h -16.19674 c -0.65536,-1.497965 -1.732021,-3.370421 -2.855501,-4.7747634 z"
         id="path401"
         style="fill:#eb3c70;fill-opacity:1" />
    </g>
    <g
       data-name="Layer 2"
       id="Layer_2"
       transform="matrix(0.16039974,0,0,0.16039974,37.345879,-11.208965)">
      <g
         data-name="Layer 1"
         id="Layer_1-2">
        <path
           class="cls-1"
           d="m 112.74263,79.422839 c -3.29638,-2.583514 -7.26172,-4.172425 -11.43,-4.58 -4.48,-0.32 -8.36,1.25 -10.62,4.23 l -0.24,0.34 -273.45,375.810001 -0.26,0.35 -0.19,0.39 c -1.06,2.25 -0.24,4.86 2.1,6.63 1.26229,1.0411 2.89501,1.52153 4.52,1.33 1.18308,-0.17574 2.25531,-0.79406 3,-1.73 l 211.75,-261.43 c 0.33397,-0.30714 0.6417,-0.64164 0.92,-1 l 1.33,-1.76 78.62,-97.07 0.26,-0.31 c 4.42,-5.890001 1.65,-15.190001 -6.31,-21.200001 z m 49.07,50.660001 c -2.40235,-3.42765 -5.73266,-6.09884 -9.6,-7.7 -4.19,-1.61 -8.36,-1.25 -11.39,0.94 l -0.33,0.25 -371.43,279.27 -0.35,0.26 -0.29,0.32 c -1.69,1.85 -1.67,4.58 0.06,6.95 0.89102,1.35136 2.29025,2.28538 3.88,2.59 1.19839,0.19227 2.425,-0.0795 3.43,-0.76 l 279,-188 c 0.41329,-0.20763 0.81099,-0.44492 1.19,-0.71 l 1.77,-1.29 103.57,-69.82 0.34,-0.22 c 5.95,-4.32 6.02,-14.02 0.17,-22.08 z"
           id="path6"
           sodipodi:nodetypes="ccccccccccccccccccccccccccccccccc"
           style="fill:#000000;fill-opacity:1" />
        <path
           style="fill:#ffc152;fill-opacity:1;stroke:none;stroke-width:6.23442px;stroke-linecap:butt;stroke-linejoin:miter;stroke-opacity:1"
           d="m 84.75122,87.216571 27.69267,21.578209 -7.97936,9.83234 -27.2302,-21.081647 z"
           id="path2444" />
        <path
           style="fill:#ffc152;fill-opacity:1;stroke:none;stroke-width:6.23442px;stroke-linecap:butt;stroke-linejoin:miter;stroke-opacity:1"
           d="m 133.33874,128.92697 20.13187,28.76659 -10.44122,7.02552 -19.84399,-28.18006 z"
           id="path1699" />
        <path
           style="fill:#ffc152;fill-opacity:1;stroke:none;stroke-width:6.23442px;stroke-linecap:butt;stroke-linejoin:miter;stroke-opacity:1"
           d="m 104.25563,150.78546 19.02002,27.26549 -10.51633,7.08176 -18.75608,-26.6825 z"
           id="path1701" />
        <path
           style="fill:#ffc152;fill-opacity:1;stroke:none;stroke-width:6.23442px;stroke-linecap:butt;stroke-linejoin:miter;stroke-opacity:1"
           d="m 63.9646,115.8014 26.22309,20.46216 -7.98636,9.83542 -25.67589,-20.08826 z"
           id="path2446" />
      </g>
    </g>
  </g>
</svg>
